<?xml version="1.0" standalone="no"?>
<!DOCTYPE svg PUBLIC "-//W3C//DTD SVG 20010904//EN"
 "http://www.w3.org/TR/2001/REC-SVG-20010904/DTD/svg10.dtd">
<svg version="1.0" xmlns="http://www.w3.org/2000/svg"
 width="872.000000pt" height="872.000000pt" viewBox="0 0 872.000000 872.000000"
 preserveAspectRatio="xMidYMid meet">
<metadata>
Created by potrace 1.11, written by Peter Selinger 2001-2013
</metadata>
<g transform="translate(0.000000,872.000000) scale(0.100000,-0.100000)"
fill="#000000" stroke="none">
<path d="M425 7855 c-101 -25 -206 -83 -260 -144 -16 -19 -42 -48 -57 -65 -15
-17 -28 -36 -28 -41 0 -6 -5 -16 -12 -23 -6 -6 -18 -28 -25 -49 -45 -118 -43
24 -42 -3178 0 -3161 -1 -3056 39 -3160 6 -16 12 -32 12 -35 1 -7 60 -93 75
-108 7 -7 16 -19 20 -26 15 -24 119 -99 171 -124 119 -54 -58 -51 3022 -51
l2855 1 67 22 c36 13 92 38 124 57 63 38 153 123 174 166 8 15 19 35 26 43 19
24 51 121 59 175 4 28 7 627 7 1333 0 705 2 1282 4 1282 6 0 115 -61 144 -80
14 -9 50 -31 80 -47 45 -25 118 -67 230 -133 34 -20 137 -79 170 -98 19 -11
107 -61 195 -112 88 -51 176 -101 195 -112 19 -11 78 -46 130 -76 52 -31 98
-56 102 -55 3 1 12 -4 18 -12 7 -8 19 -15 26 -15 8 0 14 -4 14 -10 0 -5 4 -10
9 -10 9 0 291 -159 301 -170 3 -3 30 -18 60 -34 30 -16 57 -32 60 -35 12 -15
120 -62 146 -65 36 -3 95 16 124 41 12 10 30 34 40 54 18 35 19 93 19 1668 1
1756 3 1675 -48 1722 -22 21 -81 52 -81 43 0 -4 -6 -1 -13 5 -8 6 -16 9 -19 6
-2 -3 -21 -7 -42 -10 -21 -2 -43 -9 -50 -14 -6 -5 -28 -18 -48 -30 -48 -27
-71 -40 -250 -144 -82 -47 -148 -82 -148 -79 0 4 -4 2 -8 -4 -6 -9 -202 -125
-332 -197 -30 -17 -57 -33 -60 -36 -3 -3 -21 -14 -40 -25 -84 -44 -146 -79
-160 -91 -8 -7 -28 -19 -45 -27 -16 -8 -46 -24 -65 -35 -19 -11 -87 -50 -150
-87 -63 -36 -122 -70 -130 -76 -8 -5 -32 -19 -53 -31 -21 -11 -100 -56 -174
-100 -75 -43 -139 -79 -143 -79 -4 0 -8 458 -8 1018 -1 559 -3 1028 -5 1042
-22 147 -118 296 -247 382 -44 30 -130 64 -192 78 -75 16 -5717 12 -5783 -5z"/>
</g>
</svg>
