<svg xmlns="http://www.w3.org/2000/svg" viewBox="0 0 217.7 175.3"><defs><style>.cls-1{fill:#1268b3;stroke:#1268b3;}.cls-1,.cls-2{stroke-miterlimit:10;stroke-width:0.5px;}.cls-2{fill:#fff;stroke:#fff;}</style></defs><g id="Layer_1" data-name="Layer 1"><rect class="cls-1" x="0.25" y="0.25" width="165.58" height="174.8" rx="13.52"/><path class="cls-1" d="M165.38,127.91l69.09,39.89a4,4,0,0,0,6-3.48V84.54a4,4,0,0,0-6-3.47L165.38,121A4,4,0,0,0,165.38,127.91Z" transform="translate(-23.03 -43.62)"/></g><g id="Layer_2" data-name="Layer 2"><path class="cls-2" d="M112.14,68.66l.32,8s20.7,13.39,21.82,48.6c.16,6,1,35.37-21,52.1l.32,7.49s27.9-16.25,27.26-58.79C140.53,120.45,140.37,87.31,112.14,68.66Z" transform="translate(-23.03 -43.62)"/></g></svg>